<?xml version="1.0" standalone="no"?>
<!DOCTYPE svg PUBLIC "-//W3C//DTD SVG 20010904//EN"
 "http://www.w3.org/TR/2001/REC-SVG-20010904/DTD/svg10.dtd">
<svg version="1.0" xmlns="http://www.w3.org/2000/svg"
 width="150.000000pt" height="150.000000pt" viewBox="0 0 150.000000 150.000000"
 preserveAspectRatio="xMidYMid meet">
<metadata>
Created by potrace 1.10, written by Peter Selinger 2001-2011
</metadata>
<g transform="translate(0.000000,150.000000) scale(0.050000,-0.050000)"
fill="#f50505" stroke="none">
<path d="M444 2962 c-192 -66 -359 -241 -415 -431 -54 -188 -34 -2008 24
-2135 61 -132 193 -266 324 -331 l113 -55 1010 0 1010 0 113 55 c131 65 263
199 324 331 67 147 67 2061 0 2208 -61 132 -193 266 -324 331 l-113 55 -980 5
c-909 4 -988 2 -1086 -33z m667 -911 c89 -89 35 -218 -91 -218 -123 0 -181
131 -97 221 57 60 126 59 188 -3z m963 6 c88 -84 31 -224 -92 -224 -123 0
-181 130 -95 216 63 62 126 65 187 8z m-293 -272 c292 -297 329 -367 329 -615
-1 -156 -8 -194 -54 -282 -111 -212 -401 -386 -480 -289 -57 71 -37 281 27
281 58 0 200 89 228 141 140 271 -415 451 -632 205 -113 -129 10 -346 198
-346 64 0 84 -210 27 -281 -79 -97 -369 77 -480 289 -75 144 -78 412 -5 562
58 121 508 569 571 570 25 0 128 -89 271 -235z"/>
</g>
</svg>
